<?xml version="1.0" encoding="utf-8"?>
<!-- Generator: Adobe Illustrator 21.0.0, SVG Export Plug-In . SVG Version: 6.00 Build 0)  -->
<svg version="1.1" id="Calque_1" xmlns="http://www.w3.org/2000/svg" xmlns:xlink="http://www.w3.org/1999/xlink" x="0px" y="0px"
	 viewBox="0 0 226.8 141.7" style="enable-background:new 0 0 226.8 141.7;" xml:space="preserve">
<style type="text/css">
	.st0{fill:#FBEBD5;}
</style>
<g>
	<g>
		<path class="st0" d="M111.5,102.5L111.5,102.5c-0.9,0-1.7,0.7-1.7,1.7c0,0.9,0.7,1.7,1.7,1.7h0c0.9,0,1.7-0.7,1.7-1.7
			C113.2,103.2,112.4,102.5,111.5,102.5z"/>
	</g>
</g>
<g>
	<g>
		<path class="st0" d="M73.3,69.2c-18.9,0-37.7,0-56.6,0c-1.9,0-1.9,3,0,3c1.7,0,3.5,0,5.2,0c1.9,0,1.9-3,0-3c-1.7,0-3.5,0-5.2,0
			c-1.9,0-1.9,3,0,3c18.9,0,37.7,0,56.6,0C75.3,72.2,75.3,69.2,73.3,69.2L73.3,69.2z"/>
	</g>
</g>
<g>
	<g>
		<path class="st0" d="M212.3,69.2c-18.9,0-37.7,0-56.6,0c-1.9,0-1.9,3,0,3c1.7,0,3.5,0,5.2,0c1.9,0,1.9-3,0-3c-1.7,0-3.5,0-5.2,0
			c-1.9,0-1.9,3,0,3c18.9,0,37.7,0,56.6,0C214.3,72.2,214.3,69.2,212.3,69.2L212.3,69.2z"/>
	</g>
</g>
<g>
	<g>
		<path class="st0" d="M119.2,64.5c-0.8,0-1.5,0.7-1.5,1.5v17.1c0,0.8,0.7,1.5,1.5,1.5c0.8,0,1.5-0.7,1.5-1.5V66.1
			C120.7,65.2,120,64.5,119.2,64.5z"/>
	</g>
</g>
<g>
	<g>
		<path class="st0" d="M109,64.5c-0.8,0-1.5,0.7-1.5,1.5v21.6c0,0.8,0.7,1.5,1.5,1.5c0.8,0,1.5-0.7,1.5-1.5V66.1
			C110.5,65.2,109.9,64.5,109,64.5z"/>
	</g>
</g>
<g>
	<g>
		<path class="st0" d="M98.9,64.5c-0.8,0-1.5,0.7-1.5,1.5v21.6c0,0.8,0.7,1.5,1.5,1.5c0.8,0,1.5-0.7,1.5-1.5V66.1
			C100.4,65.2,99.7,64.5,98.9,64.5z"/>
	</g>
</g>
<g>
	<g>
		<path class="st0" d="M137.7,56.9h-10.6v-5c2.2-0.6,3.9-2.7,3.9-5.1c0-2.4-1.6-4.5-3.9-5.1v-1.5c0-3.3-2.7-5.9-5.9-5.9
			c-1.6,0-3.1,0.6-4.2,1.7c-0.8,0.8-1.4,1.8-1.6,2.9h-2.7c-0.6-2.7-2.9-4.7-5.8-4.7c-1.3,0-2.6,0.4-3.6,1.2
			c-1.2-2.6-3.8-4.5-6.9-4.5c-2,0-3.9,0.8-5.3,2.2c-1.4,1.4-2.2,3.3-2.2,5.3v0.4c-3,0.7-5.2,3.3-5.2,6.5c0,3.2,2.2,5.8,5.2,6.5v45.3
			c-2.4,1.2-4,3.7-4,6.6v0.8c0,0.8,0.7,1.5,1.5,1.5h43.1c0.8,0,1.5-0.7,1.5-1.5v-0.8c0-2.8-1.6-5.3-4-6.6v-4.5h10.6
			c2.4,0,4.4-2,4.4-4.4v-27C142.1,58.9,140.1,56.9,137.7,56.9z M128,103.1H88c0.3-2.1,2.2-3.7,4.4-3.7h31.2
			C125.8,99.3,127.7,100.9,128,103.1z M108.8,57.5c0.2,1.1,0.7,2.1,1.5,2.9c1,1,2.3,1.5,3.7,1.5c2.6,0,4.8-1.9,5.2-4.5h4.9v0.9v5.9
			v21.1v5.9v5.2h-0.5H92.4l0,0h-0.5V57.5H108.8z M91.9,54.5v-2.4h16.9v2.4H91.9z M119.3,54.5v-2.4h4.8v2.4H119.3z M125.6,49.2h-7.5
			c0,0-0.1,0-0.1,0c0,0-0.1,0-0.1,0c-0.8,0-1.5,0.7-1.5,1.5v6c0,1.3-1,2.3-2.3,2.3c-0.6,0-1.2-0.2-1.6-0.7c-0.4-0.4-0.7-1-0.7-1.6
			v-6c0-0.8-0.7-1.5-1.5-1.5H90.4c-2.1,0-3.7-1.7-3.7-3.7c0-2.1,1.7-3.7,3.7-3.7c0.8,0,1.5-0.7,1.5-1.5v-1.7c0-1.2,0.5-2.3,1.3-3.2
			c0.9-0.9,2-1.3,3.2-1.3c2.5,0,4.5,2,4.5,4.5v1.7c0,0.8,0.7,1.5,1.5,1.5c0.8,0,1.5-0.7,1.5-1.5c0-0.8,0.3-1.5,0.9-2.1
			c0.6-0.6,1.3-0.9,2.1-0.9c1.6,0,3,1.3,3,3v0.2c0,0.8,0.7,1.5,1.5,1.5h5.4c0.8,0,1.5-0.7,1.5-1.5v-0.2c0-0.8,0.3-1.5,0.9-2.1
			c0.6-0.6,1.3-0.9,2.1-0.9c1.6,0,3,1.3,3,3v2.7c0,0.8,0.7,1.5,1.5,1.5c1.3,0,2.4,1.1,2.4,2.4C128,48.1,126.9,49.2,125.6,49.2z
			 M127.1,65.7h6.2v18.1h-6.2L127.1,65.7L127.1,65.7z M139.2,88.3c0,0.8-0.7,1.5-1.5,1.5h-10.6v-3h7.7c0.8,0,1.5-0.7,1.5-1.5V64.2
			c0-0.8-0.7-1.5-1.5-1.5h-7.7v-3h10.6c0.8,0,1.5,0.7,1.5,1.5L139.2,88.3L139.2,88.3z"/>
	</g>
</g>
<g>
	<g>
		<path class="st0" d="M119.3,86.3c-2,0-2,3,0,3C121.2,89.3,121.2,86.3,119.3,86.3z"/>
	</g>
</g>
</svg>
